{
  "accessors": [
    {
      "bufferView": 0,
      "byteOffset": 0,
      "componentType": 5123,
      "count": 492,
      "max": [
        181.0
      ],
      "min": [
        0.0
      ],
      "name": "buffer-0-group-0-mesh-0-indices",
      "type": "SCALAR"
    },
    {
      "bufferView": 1,
      "byteOffset": 0,
      "componentType": 5126,
      "count": 182,
      "max": [
        0.24966242909431458,
        0.5393680930137634,
        0.04907270893454552
      ],
      "min": [
        0.006333343684673309,
        0.05277934670448303,
        -0.053075872361660004
      ],
      "name": "buffer-0-group-0-mesh-0-position",
      "type": "VEC3"
    },
    {
      "bufferView": 1,
      "byteOffset": 2184,
      "componentType": 5126,
      "count": 182,
      "max": [
        0.9999457597732544,
        0.9997601509094238,
        1.0
      ],
      "min": [
        -0.9998899102210999,
        -0.9996544122695923,
        -1.0
      ],
      "name": "buffer-0-group-0-mesh-0-normal",
      "type": "VEC3"
    },
    {
      "bufferView": 2,
      "byteOffset": 0,
      "componentType": 5126,
      "count": 182,
      "max": [
        0.9985331892967224,
        0.012706359848380089
      ],
      "min": [
        -0.011528504081070423,
        -0.8263782262802124
      ],
      "name": "buffer-0-group-0-mesh-0-texcoord",
      "type": "VEC2"
    },
    {
      "bufferView": 0,
      "byteOffset": 984,
      "componentType": 5123,
      "count": 702,
      "max": [
        237.0
      ],
      "min": [
        0.0
      ],
      "name": "buffer-0-group-1-mesh-0-indices",
      "type": "SCALAR"
    },
    {
      "bufferView": 1,
      "byteOffset": 4368,
      "componentType": 5126,
      "count": 238,
      "max": [
        -0.006446202285587788,
        0.5393680930137634,
        0.04907273128628731
      ],
      "min": [
        -0.24977530539035797,
        0.05277934670448303,
        -0.0530758798122406
      ],
      "name": "buffer-0-group-1-mesh-0-position",
      "type": "VEC3"
    },
    {
      "bufferView": 1,
      "byteOffset": 7224,
      "componentType": 5126,
      "count": 238,
      "max": [
        0.9999173879623413,
        0.9998170137405396,
        1.0
      ],
      "min": [
        -0.9999457597732544,
        -0.9996751546859741,
        -1.0
      ],
      "name": "buffer-0-group-1-mesh-0-normal",
      "type": "VEC3"
    },
    {
      "bufferView": 2,
      "byteOffset": 1456,
      "componentType": 5126,
      "count": 238,
      "max": [
        0.99853515625,
        3.184860730698347E-8
      ],
      "min": [
        -2.8272053143041376E-8,
        -0.822941780090332
      ],
      "name": "buffer-0-group-1-mesh-0-texcoord",
      "type": "VEC2"
    }
  ],
  "asset": {
    "generator": "Obj2GltfConverter",
    "version": "2.0"
  },
  "bufferViews": [
    {
      "buffer": 0,
      "byteLength": 2388,
      "byteOffset": 0,
      "name": "buffer-0-bufferview-ushort",
      "target": 34963
    },
    {
      "buffer": 0,
      "byteLength": 10080,
      "byteOffset": 2388,
      "byteStride": 12,
      "name": "buffer-0-bufferview-vec3",
      "target": 34962
    },
    {
      "buffer": 0,
      "byteLength": 3360,
      "byteOffset": 12472,
      "byteStride": 8,
      "name": "buffer-0-bufferview-vec2",
      "target": 34962
    }
  ],
  "buffers": [
    {
      "byteLength": 15832,
      "name": "buffer-0",
      "uri": "logo-fs-lowpoly.bin"
    }
  ],
  "materials": [
    {
      "alphaMode": "OPAQUE",
      "doubleSided": true,
      "name": "Default",
      "pbrMetallicRoughness": {
        "baseColorFactor": [
          1.0,
          1.0,
          1.0,
          1.0
        ],
        "metallicFactor": 0.0,
        "roughnessFactor": 1.0
      }
    },
    {
      "alphaMode": "OPAQUE",
      "doubleSided": true,
      "name": "red",
      "pbrMetallicRoughness": {
        "baseColorFactor": [
          0.9922,
          0.0,
          0.0,
          1.0
        ],
        "metallicFactor": 0.0,
        "roughnessFactor": 1.0
      }
    }
  ],
  "meshes": [
    {
      "name": "buffer-0-mesh-0",
      "primitives": [
        {
          "attributes": {
            "POSITION": 1,
            "NORMAL": 2,
            "TEXCOORD_0": 3
          },
          "indices": 0,
          "material": 0,
          "mode": 4
        },
        {
          "attributes": {
            "POSITION": 5,
            "NORMAL": 6,
            "TEXCOORD_0": 7
          },
          "indices": 4,
          "material": 1,
          "mode": 4
        }
      ]
    }
  ],
  "nodes": [
    {
      "mesh": 0,
      "name": "node-0"
    }
  ],
  "scenes": [
    {
      "name": "scene-0",
      "nodes": [
        0
      ]
    }
  ]
}